<?xml version="1.0" encoding="UTF-8"?>
<svg width="79px" height="80px" viewBox="0 0 79 80" version="1.1" xmlns="http://www.w3.org/2000/svg" xmlns:xlink="http://www.w3.org/1999/xlink">
    <!-- Generator: Sketch 51.3 (57544) - http://www.bohemiancoding.com/sketch -->
    <title>other_bonus_1_1</title>
    <desc>Created with Sketch.</desc>
    <defs>
        <linearGradient x1="97.785794%" y1="2.21420599%" x2="1.78172832%" y2="98.2182717%" id="linearGradient-1">
            <stop stop-color="#D1CDFF" offset="0%"/>
            <stop stop-color="#71E7FF" offset="53.5638164%"/>
            <stop stop-color="#D8CAFF" offset="100%"/>
        </linearGradient>
    </defs>
    <g id="Page-1" stroke="none" stroke-width="1" fill="none" fill-rule="evenodd">
        <g id="icons" transform="translate(-2078.000000, -394.000000)">
            <g id="Fill-81" transform="translate(2077.000000, 394.000000)">
                <path d="M79.6477143,40.2035714 C79.6477143,61.9007143 62.0577143,79.4892857 40.362,79.4892857 C18.6648571,79.4892857 1.07628571,61.9007143 1.07628571,40.2035714 C1.07628571,18.5064286 18.6648571,0.917857143 40.362,0.917857143 C62.0577143,0.917857143 79.6477143,18.5064286 79.6477143,40.2035714" fill="url(#linearGradient-1)" fill-rule="evenodd"/>
                <polyline id="Stroke-322" stroke="#FFFFFF" stroke-width="1" stroke-linejoin="round" points="34.9547143 26.3147143 30.9704286 33.5247143 40.3618571 63.1247143 62.8461429 33.5247143"/>
                <polyline id="Stroke-324" stroke="#FFFFFF" stroke-width="1" stroke-linejoin="round" points="45.7694286 26.3147143 49.7537143 33.5247143 40.3622857 63.1247143 17.878 33.5247143"/>
                <polygon id="Stroke-326" stroke="#FFFFFF" stroke-width="1" stroke-linejoin="round" points="17.8774286 33.5252857 28.6917143 26.3152857 52.0302857 26.3152857 62.8474286 33.5252857"/>
                <polygon id="Stroke-328" stroke="#FFFFFF" stroke-width="1.5" stroke-linejoin="round" points="52.0305714 26.3147143 28.692 26.3147143 17.8777143 33.5247143 40.362 63.1247143 62.8462857 33.5247143"/>
            </g>
        </g>
    </g>
</svg>