<?xml version="1.0" encoding="UTF-8"?>
<svg width="79px" height="79px" viewBox="0 0 79 79" version="1.1" xmlns="http://www.w3.org/2000/svg" xmlns:xlink="http://www.w3.org/1999/xlink">
    <!-- Generator: Sketch 51.3 (57544) - http://www.bohemiancoding.com/sketch -->
    <title>internet_games_1</title>
    <desc>Created with Sketch.</desc>
    <defs>
        <linearGradient x1="0%" y1="0%" x2="101.999998%" y2="100.999999%" id="linearGradient-1">
            <stop stop-color="#3023AE" offset="0%"/>
            <stop stop-color="#C86DD7" offset="100%"/>
        </linearGradient>
    </defs>
    <g id="Page-1" stroke="none" stroke-width="1" fill="none" fill-rule="evenodd">
        <g id="icons" transform="translate(-477.000000, -1516.000000)">
            <g id="Fill-172" transform="translate(477.000000, 1515.000000)">
                <path d="M78.9327143,40.7071429 C78.9327143,62.4042857 61.3427143,79.9928571 39.647,79.9928571 C17.9498571,79.9928571 0.361285714,62.4042857 0.361285714,40.7071429 C0.361285714,19.01 17.9498571,1.42142857 39.647,1.42142857 C61.3427143,1.42142857 78.9327143,19.01 78.9327143,40.7071429" fill="url(#linearGradient-1)" fill-rule="evenodd"/>
                <path d="M63.4751429,46.0768571 C62.8451429,38.9182857 61.0437143,31.8854286 58.1322857,25.2082857 C55.9422857,20.1868571 48.7651429,18.9297143 44.668,22.8068571 C43.888,23.5468571 43.0194286,24.2011429 42.1065714,24.7925714 C40.738,25.6782857 38.6394286,25.8897143 36.898,24.8525714 C35.928,24.2725714 35.048,23.5725714 34.238,22.8068571 C30.1422857,18.9297143 22.9651429,20.1868571 20.7751429,25.2082857 C17.8637143,31.8854286 16.0622857,38.9182857 15.4322857,46.0768571 L15.0594286,50.304 C14.5208571,56.4254286 22.9594286,59.5682857 27.3194286,54.8711429 L32.7737143,48.9968571 C33.9937143,47.6825714 35.7894286,46.924 37.6822857,46.924 L39.4537143,46.924 L41.2237143,46.924 C43.118,46.924 44.9137143,47.6825714 46.1337143,48.9968571 L51.5865714,54.8711429 C55.9465714,59.5682857 64.3865714,56.4254286 63.8465714,50.304 L63.4751429,46.0768571 Z" id="Stroke-173" stroke="#FFFFFF" stroke-width="1.5" stroke-linejoin="round"/>
                <path d="M34.9707143,35.7421429 L22.745,35.7421429" id="Stroke-174" stroke="#FFFFFF" stroke-width="1.5" stroke-linejoin="round"/>
                <path d="M28.8581429,41.8554286 L28.8581429,29.6297143" id="Stroke-175" stroke="#FFFFFF" stroke-width="1.5" stroke-linejoin="round"/>
                <path d="M54.6365714,35.7421429 C54.6365714,32.8992857 52.3308571,30.5935714 49.488,30.5935714 C46.6437143,30.5935714 44.3394286,32.8992857 44.3394286,35.7421429 C44.3394286,38.5864286 46.6437143,40.8907143 49.488,40.8907143 C52.3308571,40.8907143 54.6365714,38.5864286 54.6365714,35.7421429 Z" id="Stroke-176" stroke="#FFFFFF" stroke-width="1.5" stroke-linejoin="round"/>
            </g>
        </g>
    </g>
</svg>