<?xml version="1.0" encoding="UTF-8"?>
<svg width="99px" height="91px" viewBox="0 0 99 91" version="1.1" xmlns="http://www.w3.org/2000/svg" xmlns:xlink="http://www.w3.org/1999/xlink">
    <!-- Generator: Sketch 51.1 (57501) - http://www.bohemiancoding.com/sketch -->
    <title>Group 5</title>
    <desc>Created with Sketch.</desc>
    <defs/>
    <g id="Page" stroke="none" stroke-width="1" fill="none" fill-rule="evenodd">
        <g id="news_card" transform="translate(-269.000000, -995.000000)" fill-rule="nonzero" stroke="#FFFFFF" stroke-width="2">
            <g id="Group-5" transform="translate(270.000000, 995.000000)">
                <path d="M77.0543368,8.48305085 L71.3319117,10.8115839 C59.3629103,15.6819343 46.563418,18.186377 33.6414481,18.186377 L19.0769231,18.186377 C15.7632146,18.186377 13.0769231,20.8726685 13.0769231,24.186377 L13.0769231,51.4065722 C13.0769231,54.7202807 15.7632146,57.4065722 19.0769231,57.4065722 L33.142553,57.4065722 C46.3504111,57.4065722 59.3891462,60.3772169 71.2934913,66.0985874 L77.0543368,68.8673186" id="Path-3"/>
                <path d="M12.8478702,24 L12.8478702,24 C5.75218741,24 -8.68970518e-16,29.7521874 0,36.8478702 L1.77635684e-15,38.0458542 C2.64532736e-15,45.141537 5.75218741,50.8937244 12.8478702,50.8937244" id="Path-4"/>
                <path d="M96.9239351,30.120509 L96.9239351,30.120509 C93.0579418,30.120509 89.9239351,33.2545157 89.9239351,37.120509 L89.9239351,37.7732155 C89.9239351,41.6392087 93.0579418,44.7732155 96.9239351,44.7732155" id="Path-4-Copy" transform="translate(93.423935, 37.446862) scale(-1, 1) translate(-93.423935, -37.446862) "/>
                <rect id="Rectangle" x="77.1538462" y="1" width="11.8461538" height="75.8898305" rx="5.92307692"/>
                <path d="M22.3969162,57.1819027 L26.6431011,82.8764412 C27.3214468,86.9812507 31.1989602,89.7589484 35.3037697,89.0806027 C35.3131357,89.0790549 35.3224988,89.0774894 35.3318589,89.0759062 L35.3318589,89.0759062 C39.4139173,88.3854568 42.1633597,84.5165746 41.4729102,80.4345161 C41.4692821,80.4130662 41.4655607,80.3916322 41.461746,80.3702148 L37.3316478,57.1819027" id="Path-5"/>
                <path d="M37.0682715,57.1516024 L37.0682715,18.5922804" id="Path-6"/>
            </g>
        </g>
    </g>
</svg>